<?xml version="1.0" encoding="UTF-8"?>
<svg xmlns="http://www.w3.org/2000/svg" viewBox="0 0 560 280" width="560" height="280">
  <defs>
    <linearGradient id="bg" x1="0" y1="0" x2="1" y2="1">
      <stop offset="0%" stop-color="#0e1a3a"/>
      <stop offset="100%" stop-color="#1e3a8a"/>
    </linearGradient>
  </defs>
  <rect width="560" height="280" fill="url(#bg)"/>
  <rect y="0" width="560" height="6" fill="#8e447e"/>
  <text x="40" y="68" font-family="Helvetica,Arial,sans-serif" font-size="14" font-weight="600" fill="#cfd8e3" letter-spacing="2">CUBE MASTER</text>
  <text x="40" y="130" font-family="Helvetica,Arial,sans-serif" font-size="34" font-weight="800" fill="#ffffff">Bulk Activity Reassignment</text>
  <text x="40" y="168" font-family="Helvetica,Arial,sans-serif" font-size="18" fill="#cfd8e3">Hand off hundreds of activities in one click.</text>
  <rect x="40" y="200" width="64" height="4" fill="#8e447e" rx="2"/>
  <text x="40" y="234" font-family="Helvetica,Arial,sans-serif" font-size="12" fill="#9fb3cc">apps.odoo.com  ·  cm.sa</text>
  <g transform="translate(370 60) scale(2.1)">
    <circle cx="14" cy="22" r="9" fill="#8e447e"/><path d="M2 46c0-7 5-12 12-12s12 5 12 12v6H2z" fill="#8e447e"/><circle cx="66" cy="22" r="9" fill="#29c4b3"/><path d="M54 46c0-7 5-12 12-12s12 5 12 12v6H54z" fill="#29c4b3"/><path d="M14 60q26-22 52 0" stroke="#f8763a" stroke-width="5" fill="none" stroke-linecap="round"/><circle cx="40" cy="48" r="4" fill="#f8b73c"/>
  </g>
</svg>